<?xml version="1.0" encoding="utf-8"?>
<!-- Generator: Adobe Illustrator 25.3.1, SVG Export Plug-In . SVG Version: 6.00 Build 0)  -->
<svg version="1.1"
	 id="Layer_1" inkscape:version="0.92.4 5da689c313, 2019-01-14" sodipodi:docname="CV19DP_logo_oneliner_LU.svg" xmlns:cc="http://creativecommons.org/ns#" xmlns:dc="http://purl.org/dc/elements/1.1/" xmlns:inkscape="http://www.inkscape.org/namespaces/inkscape" xmlns:rdf="http://www.w3.org/1999/02/22-rdf-syntax-ns#" xmlns:sodipodi="http://sodipodi.sourceforge.net/DTD/sodipodi-0.dtd" xmlns:svg="http://www.w3.org/2000/svg"
	 xmlns="http://www.w3.org/2000/svg" xmlns:xlink="http://www.w3.org/1999/xlink" x="0px" y="0px" viewBox="0 0 479.6 85.5"
	 style="enable-background:new 0 0 479.6 85.5;" xml:space="preserve">
<style type="text/css">
	.st0{fill:#3B9DD8;}
	.st1{fill:#FFFFFF;}
	.st2{fill:#DE2C6C;}
	.st3{fill:none;}
	.st4{enable-background:new    ;}
	.st5{fill:#3C9CD7;}
</style>
<sodipodi:namedview  bordercolor="#666666" borderopacity="1" fit-margin-bottom="0" fit-margin-left="0" fit-margin-right="0" fit-margin-top="0" gridtolerance="10" guidetolerance="10" id="namedview71" inkscape:current-layer="Layer_1" inkscape:cx="217.46332" inkscape:cy="94.470999" inkscape:pageopacity="0" inkscape:pageshadow="2" inkscape:window-height="480" inkscape:window-maximized="0" inkscape:window-width="766" inkscape:window-x="0" inkscape:window-y="0" inkscape:zoom="0.33648615" objecttolerance="10" pagecolor="#ffffff" showgrid="false">
	</sodipodi:namedview>
<g id="g68" transform="translate(-49.77933,-45.4)">
	<g id="g6">
		<path id="path2" inkscape:connector-curvature="0" class="st0" d="M75,45.5v3.3c0.2,0,0.9,0,1.8-0.1c1-0.2,1.7,1.1,1.6,1.8
			c-0.1,0.8-0.9,2.4-1.1,4.5c-0.1,0.6,0.1,0.8,0.2,0.8c0.7,0.1,1.4,0.2,2.1,0.4c0.1,0,0.4-0.1,0.5-0.6c0.6-2,0.5-3.8,0.7-4.6
			c0.2-0.7,1.2-1.6,2.1-1c0.9,0.5,1.7,0.8,1.7,0.8s0.8,0.4,1.8,0.6c1,0.2,1.1,1.6,0.8,2.2c-0.4,0.7-1.7,1.9-2.8,3.7
			c-0.3,0.5-0.2,0.7-0.1,0.8c0.6,0.4,1.2,0.8,1.8,1.2c0.1,0,0.4,0.1,0.7-0.4c1.3-1.6,1.9-3.3,2.4-4c0.4-0.6,1.7-1,2.3-0.1
			c0.6,0.8,1.2,1.4,1.2,1.4s0.6,0.6,1.4,1.2c0.8,0.6,0.4,1.9-0.1,2.3c-0.7,0.5-2.3,1-4,2.4c-0.4,0.4-0.4,0.6-0.4,0.7
			c0.4,0.6,0.8,1.2,1.2,1.8c0.1,0.1,0.3,0.2,0.8-0.1c1.9-1,3-2.3,3.7-2.8c0.6-0.4,2-0.2,2.2,0.8s0.6,1.8,0.6,1.8s0.3,0.8,0.8,1.7
			c0.5,0.9-0.3,2-1,2.1c-0.8,0.2-2.5,0.1-4.6,0.7c-0.5,0.2-0.6,0.4-0.6,0.5c0.2,0.7,0.3,1.4,0.4,2.1c0,0.1,0.2,0.3,0.8,0.2
			c2.1-0.2,3.7-1,4.5-1.1c0.7-0.1,1.9,0.5,1.8,1.6c-0.2,1-0.1,1.9-0.1,1.9s0,0.9,0.1,1.9c0.2,1-1.1,1.7-1.8,1.6
			c-0.8-0.1-2.4-0.9-4.5-1.1c-0.6-0.1-0.8,0.1-0.8,0.2c-0.1,0.7-0.2,1.4-0.4,2.1c0,0.1,0.1,0.4,0.6,0.5c2,0.6,3.8,0.5,4.6,0.7
			c0.7,0.2,1.6,1.2,1,2.1c-0.5,0.9-0.8,1.7-0.8,1.7s-0.4,0.8-0.6,1.8s-1.6,1.1-2.2,0.8c-0.7-0.4-1.9-1.7-3.7-2.8
			c-0.5-0.3-0.7-0.2-0.8-0.1c-0.4,0.6-0.8,1.2-1.2,1.8c0,0.1-0.1,0.4,0.4,0.7c1.6,1.3,3.3,1.9,4,2.4c0.6,0.4,1,1.7,0.1,2.3
			c-0.8,0.6-1.4,1.2-1.4,1.2s-0.6,0.6-1.2,1.4s-1.9,0.4-2.3-0.1c-0.5-0.7-1-2.3-2.4-4c-0.4-0.4-0.6-0.4-0.7-0.4
			c-0.6,0.4-1.2,0.8-1.8,1.2c-0.1,0.1-0.2,0.3,0.1,0.8c1,1.9,2.3,3,2.8,3.7c0.4,0.6,0.2,2-0.8,2.2s-1.8,0.6-1.8,0.6
			s-0.8,0.3-1.7,0.8c-0.9,0.5-2-0.3-2.1-1c-0.2-0.8-0.1-2.5-0.7-4.6c-0.2-0.5-0.4-0.6-0.5-0.6c-0.7,0.2-1.4,0.3-2.1,0.4
			c-0.1,0-0.3,0.2-0.2,0.8c0.2,2.1,1,3.7,1.1,4.5c0.1,0.7-0.5,1.9-1.6,1.8c-0.9-0.1-1.7-0.1-1.8-0.1v3.6h26.8l10.6-57.4L75,45.5
			L75,45.5z"/>
		<path id="path4" inkscape:connector-curvature="0" class="st1" d="M76.9,99.5c1,0.2,1.7-1.1,1.6-1.8c-0.1-0.8-0.9-2.4-1.1-4.5
			c-0.1-0.6,0.1-0.8,0.2-0.8c0.7-0.1,1.4-0.2,2.1-0.4c0.1,0,0.4,0.1,0.5,0.6c0.6,2,0.5,3.8,0.7,4.6c0.2,0.7,1.2,1.6,2.1,1
			c0.9-0.5,1.7-0.8,1.7-0.8s0.8-0.4,1.8-0.6s1.1-1.6,0.8-2.2c-0.4-0.7-1.7-1.9-2.8-3.7c-0.3-0.5-0.2-0.7-0.1-0.8
			c0.6-0.4,1.2-0.8,1.8-1.2c0.1,0,0.4-0.1,0.7,0.4c1.3,1.6,1.9,3.3,2.4,4c0.4,0.6,1.7,1,2.3,0.1c0.6-0.8,1.2-1.4,1.2-1.4
			s0.6-0.6,1.4-1.2s0.4-1.9-0.1-2.3c-0.7-0.5-2.3-1-4-2.4c-0.4-0.4-0.4-0.6-0.4-0.7c0.4-0.6,0.8-1.2,1.2-1.8
			c0.1-0.1,0.3-0.2,0.8,0.1c1.9,1,3,2.3,3.7,2.8c0.6,0.4,2,0.2,2.2-0.8s0.6-1.8,0.6-1.8s0.3-0.8,0.8-1.7c0.5-0.9-0.3-2-1-2.1
			c-0.8-0.2-2.5-0.1-4.6-0.7c-0.5-0.2-0.6-0.4-0.6-0.5c0.2-0.7,0.3-1.4,0.4-2.1c0-0.1,0.2-0.3,0.8-0.2c2.1,0.2,3.7,1,4.5,1.1
			c0.7,0.1,1.9-0.5,1.8-1.6c-0.2-1-0.1-1.9-0.1-1.9s0-0.9,0.1-1.9c0.2-1-1.1-1.7-1.8-1.6c-0.8,0.1-2.4,0.9-4.5,1.1
			c-0.6,0.1-0.8-0.1-0.8-0.2c-0.1-0.7-0.2-1.4-0.4-2.1c0-0.1,0.1-0.4,0.6-0.5c2-0.6,3.8-0.5,4.6-0.7c0.7-0.2,1.6-1.2,1-2.1
			c-0.5-0.9-0.8-1.7-0.8-1.7s-0.4-0.8-0.6-1.8s-1.6-1.1-2.2-0.8c-0.7,0.4-1.9,1.7-3.7,2.8c-0.5,0.3-0.7,0.2-0.8,0.1
			c-0.4-0.6-0.8-1.2-1.2-1.8c0-0.1-0.1-0.4,0.4-0.7c1.6-1.3,3.3-1.9,4-2.4c0.6-0.4,1-1.7,0.1-2.3c-0.8-0.6-1.4-1.2-1.4-1.2
			s-0.6-0.6-1.2-1.4c-0.6-1-1.9-0.6-2.3,0c-0.5,0.7-1,2.3-2.4,4c-0.4,0.4-0.6,0.4-0.7,0.4c-0.6-0.4-1.2-0.8-1.8-1.2
			c-0.1-0.1-0.2-0.3,0.1-0.8c1-1.9,2.3-3,2.8-3.7c0.4-0.6,0.2-2-0.8-2.2s-1.8-0.6-1.8-0.6S83.9,50.5,83,50s-2,0.3-2.1,1
			c-0.2,0.8-0.1,2.5-0.7,4.6c-0.2,0.5-0.4,0.6-0.5,0.6c-0.7-0.2-1.4-0.3-2.1-0.4c-0.1,0-0.3-0.2-0.2-0.8c0.2-2.1,1-3.7,1.1-4.5
			c0.1-0.7-0.5-1.9-1.6-1.8c-0.9,0.1-1.7,0.1-1.8,0.1v50.5C75.2,99.4,76,99.4,76.9,99.5z"/>
	</g>
	<path id="path8" inkscape:connector-curvature="0" class="st2" d="M73.2,99.6c-1,0.2-1.7-1.1-1.6-1.8c0.1-0.8,0.9-2.4,1.1-4.5
		c0.1-0.6-0.1-0.8-0.2-0.8c-0.7-0.1-1.4-0.2-2.1-0.4c-0.1,0-0.4,0.1-0.5,0.6c-0.6,2-0.5,3.8-0.7,4.6c-0.2,0.7-1.2,1.6-2.1,1
		c-0.9-0.5-1.7-0.8-1.7-0.8s-0.8-0.4-1.8-0.6c-1-0.2-1.1-1.6-0.8-2.2c0.4-0.7,1.7-1.9,2.8-3.7c0.3-0.5,0.2-0.7,0.1-0.8
		c-0.6-0.4-1.2-0.8-1.8-1.2c-0.1,0-0.4-0.1-0.7,0.4c-1.3,1.6-1.9,3.3-2.4,4c-0.4,0.6-1.7,1-2.3,0.1c-0.6-0.8-1.2-1.4-1.2-1.4
		s-0.6-0.6-1.4-1.2c-0.8-0.6-0.4-1.9,0.1-2.3c0.7-0.5,2.3-1,4-2.4c0.4-0.4,0.4-0.6,0.4-0.7c-0.4-0.6-0.8-1.2-1.2-1.8
		c-0.1-0.1-0.3-0.2-0.8,0.1c-1.9,1-3,2.3-3.7,2.8c-0.6,0.4-2,0.2-2.2-0.8S51.9,84,51.9,84s-0.3-0.8-0.8-1.7c-0.5-0.9,0.3-2,1-2.1
		c0.8-0.2,2.5-0.1,4.6-0.7c0.5-0.2,0.6-0.4,0.6-0.5c-0.2-0.7-0.3-1.4-0.4-2.1c0-0.1-0.2-0.3-0.8-0.2c-2.1,0.2-3.7,1-4.5,1.1
		c-0.7,0.1-1.9-0.5-1.8-1.6c0.2-1,0.1-1.9,0.1-1.9s0-0.9-0.1-1.9c-0.2-1,1.1-1.7,1.8-1.6c0.8,0.1,2.4,0.9,4.5,1.1
		c0.6,0.1,0.8-0.1,0.8-0.2c0.1-0.7,0.2-1.4,0.4-2.1c0-0.1-0.1-0.4-0.6-0.5c-2-0.6-3.8-0.5-4.6-0.7c-0.7-0.2-1.6-1.2-1-2.1
		c0.5-0.9,0.8-1.7,0.8-1.7s0.4-0.8,0.6-1.8c0.2-1,1.6-1.1,2.2-0.8c0.7,0.4,1.9,1.7,3.7,2.8c0.5,0.3,0.7,0.2,0.8,0.1
		c0.4-0.6,0.8-1.2,1.2-1.8c0-0.1,0.1-0.4-0.4-0.7c-1.6-1.3-3.3-1.9-4-2.4c-0.6-0.4-1-1.7-0.1-2.3c0.8-0.6,1.4-1.2,1.4-1.2
		s0.6-0.6,1.2-1.4c0.6-0.8,1.9-0.4,2.3,0.1c0.5,0.7,1,2.3,2.4,4c0.4,0.4,0.6,0.4,0.7,0.4c0.6-0.4,1.2-0.8,1.8-1.2
		c0.1-0.1,0.2-0.3-0.1-0.8c-1-1.9-2.3-3-2.8-3.7c-0.4-0.6-0.2-2,0.8-2.2s1.8-0.6,1.8-0.6s0.8-0.3,1.7-0.8c0.9-0.5,2,0.3,2.1,1
		c0.2,0.8,0.1,2.5,0.7,4.6c0.2,0.5,0.4,0.6,0.5,0.6c0.7-0.2,1.4-0.3,2.1-0.4c0.1,0,0.3-0.2,0.2-0.8c-0.2-2.1-1-3.7-1.1-4.5
		c-0.1-0.7,0.5-1.9,1.6-1.8c0.9,0,1.7,0,1.8,0v50.5C74.9,99.5,74.1,99.5,73.2,99.6z"/>
	<g id="g52">
		<g id="g30">
			<path id="path10" inkscape:connector-curvature="0" class="st2" d="M324.2,95l7.1-40.4h9.4c6.2,0,10.2,3.7,8.7,11.8l-3,17
				c-1.4,8-5.5,11.6-11.8,11.6H324.2z M334.7,90.4c3.2,0,5.9-2.1,6.8-7.4l2.9-16.5c0.8-5.2-1.1-7.4-4.2-7.4h-4.8L330,90.4H334.7z"/>
			<path id="path12" inkscape:connector-curvature="0" class="st2" d="M350.6,86.3l2.1-11.9c1.1-6,4.2-9.1,8.6-9.1
				c2.7,0,4.8,1.5,5.3,3.8l0.6-3.2h4.8L366.8,95H362l0.6-2.9c-1.3,2.3-3.3,3.5-6,3.5C352.2,95.6,349.5,92.4,350.6,86.3z M363.6,86.1
				l2-11.3c0.7-3.4-0.6-5.2-3.1-5.2s-4.4,1.8-5,5.2l-2,11.4c-0.6,3.3,0.7,5.1,3.3,5.1C361.1,91.3,363,89.5,363.6,86.1L363.6,86.1z"
				/>
			<path id="path14" inkscape:connector-curvature="0" class="st2" d="M384,94.7c-1.3,0.5-2.7,0.9-4.5,0.9c-4,0-5.9-2.3-5.1-7
				l3.3-18.8h-3.2l0.7-3.9c3.9,0,5.2-0.2,7-9.5h3.2l-1.7,9.5h5.4l-0.7,3.9h-5.7l-3.2,18c-0.5,2.6,0.4,3.4,1.8,3.4
				c1.3,0,2.6-0.5,3.7-1.2L384,94.7z"/>
			<path id="path16" inkscape:connector-curvature="0" class="st2" d="M388.2,86.3l2.1-11.9c1.1-6,4.2-9.1,8.6-9.1
				c2.7,0,4.8,1.5,5.3,3.8l0.6-3.2h4.8L404.4,95h-4.8l0.6-2.9c-1.3,2.3-3.3,3.5-6,3.5C389.8,95.6,387.1,92.4,388.2,86.3z
				 M401.2,86.1l2-11.3c0.7-3.4-0.6-5.2-3.1-5.2s-4.4,1.8-5,5.2l-2,11.4c-0.6,3.3,0.7,5.1,3.3,5.1C398.7,91.3,400.6,89.5,401.2,86.1
				L401.2,86.1z"/>
			<path id="path18" inkscape:connector-curvature="0" class="st2" d="M424,95h-5l7.1-40.4h9.6c5.7,0,9.2,3,8.1,9.2l-1.3,7.2
				c-1,5.9-4.5,8.9-10.1,8.9h-5.9L424,95z M437.6,70.6l1.1-6.4c0.6-3.5-1.1-5-4.2-5h-4.3l-2.9,16.5h4.4
				C434.8,75.7,437,74.1,437.6,70.6z"/>
			<path id="path20" inkscape:connector-curvature="0" class="st2" d="M443.7,86l2-11.3c1.1-6.4,5-9.5,10-9.5c5.1,0,8.9,3.1,7.7,9.6
				l-2,11.4c-1.1,6.3-4.9,9.3-9.9,9.3C446.4,95.6,442.5,92.6,443.7,86L443.7,86z M456.6,86.2l2-11.4c0.6-3.3-0.7-5.2-3.2-5.2
				c-2.4,0-4.3,1.8-4.9,5.2l-2,11.3c-0.6,3.3,0.7,5.1,3.1,5.1C454.1,91.3,456,89.5,456.6,86.2z"/>
			<path id="path22" inkscape:connector-curvature="0" class="st2" d="M469.8,65.9h4.8l-0.6,3.6c1.6-3,4-4.2,8-4.2l-1.1,5.5
				c-0.5-0.3-1.8-0.5-2.3-0.5c-3.9,0-5.3,2.9-6.3,8.5L469.5,95h-4.8L469.8,65.9z"/>
			<path id="path24" inkscape:connector-curvature="0" class="st2" d="M491.7,94.7c-1.3,0.5-2.7,0.9-4.5,0.9c-4,0-5.9-2.3-5.1-7
				l3.3-18.8h-3.2l0.7-3.9c3.9,0,5.2-0.2,7-9.5h3.2l-1.7,9.5h5.4l-0.7,3.9h-5.7l-3.2,18c-0.5,2.6,0.4,3.4,1.8,3.4
				c1.3,0,2.6-0.5,3.7-1.2L491.7,94.7z"/>
			<path id="path26" inkscape:connector-curvature="0" class="st2" d="M495.9,86.3l2.1-11.9c1.1-6,4.2-9.1,8.6-9.1
				c2.7,0,4.8,1.5,5.3,3.8l0.6-3.2h4.8L512.1,95h-4.8l0.6-2.9c-1.3,2.3-3.3,3.5-6,3.5C497.5,95.6,494.8,92.4,495.9,86.3z
				 M508.9,86.1l2-11.3c0.7-3.4-0.6-5.2-3.1-5.2s-4.4,1.8-5,5.2l-2,11.4c-0.6,3.3,0.7,5.1,3.3,5.1C506.4,91.3,508.3,89.5,508.9,86.1
				L508.9,86.1z"/>
			<path id="path28" inkscape:connector-curvature="0" class="st2" d="M522.3,95h-2.2c-2,0-2.4-0.8-2.1-2.8l6.6-37.6h4.8L522.3,95z"
				/>
		</g>
		<g id="g50">
			<g id="g48">
				<path id="path32" inkscape:connector-curvature="0" d="M143.4,80l-0.6,3c-1.5,8.6-6.6,12.7-13.3,12.7c-7,0-12.2-4-10.5-13.4
					l2.9-16.6c1.5-8.6,6.3-12.7,13.3-12.7c6.7,0,12.2,4.1,10.6,13.1l-0.5,2.6l-7.3,0.5l0.4-2.5c0.7-3.7-0.7-5.3-3.1-5.3
					c-2.4,0-4.3,1.5-5,5.3l-2.7,15.2c-0.7,3.9,0.7,5.4,3.1,5.4c2.4,0,4.2-1.5,5-5.4l0.4-2.4L143.4,80z"/>
				<path id="path34" inkscape:connector-curvature="0" d="M175.8,66.3l-3,16.7c-1.5,8.6-6.9,12.7-14,12.7c-7,0-12.8-4-11.2-13.4
					l2.9-16.6c1.5-8.6,7-12.7,14.1-12.7C171.6,52.9,177.4,57,175.8,66.3z M159.1,66.6l-2.8,15.2c-0.7,3.9,0.7,5.4,3.1,5.4
					c2.4,0,4.3-1.5,4.9-5.4l2.7-15.2c0.7-3.7-0.7-5.3-3.1-5.3C161.7,61.3,159.7,62.8,159.1,66.6L159.1,66.6z"/>
				<path id="path36" inkscape:connector-curvature="0" d="M199.5,53.5h8.1L192.2,95H182l-1.1-41.5h9.4l-0.2,27L199.5,53.5z"/>
				<path id="path38" inkscape:connector-curvature="0" d="M220.6,53.5L213.3,95h-8.6l7.3-41.5H220.6z"/>
				<path id="path40" inkscape:connector-curvature="0" d="M219.8,95l7.3-41.5h11.2c7,0,12.2,3.7,10.5,12.9l-2.9,16.3
					c-1.5,8.6-6.1,12.3-13.1,12.3H219.8z M232.6,86.9c2.4,0,4.3-1.5,4.9-5.4l2.6-14.7c0.6-3.7-0.7-5.3-3.1-5.3h-2.7l-4.5,25.4H232.6
					z"/>
				<path id="path42" inkscape:connector-curvature="0" d="M253.3,73.3H269l-1.2,6.3h-15.6L253.3,73.3z"/>
				<path id="path44" inkscape:connector-curvature="0" d="M277.8,57.3l7.5-3.8h1.8L279.8,95h-8.7L277.8,57.3z"/>
				<path id="path46" inkscape:connector-curvature="0" d="M303.8,77.4c-1.3,1.7-3.2,3.3-6.5,3.3c-5.3,0-8.7-3.2-7.5-10l1-5.5
					c1.4-8.3,5.6-12.3,12.9-12.3c8,0,12.3,4,10.8,12.3l-3,16.9C310,90.3,306,95.6,298,95.6c-8.1,0-11.5-4.2-10.3-10.6l0.2-1.6
					l7.3-0.5l-0.1,0.7c-0.5,2.6,0.4,4.2,2.9,4.2c2.6,0,4.3-2.1,4.9-5.6L303.8,77.4z M305.8,65.5c0.6-3.1-0.4-4.9-2.9-4.9
					c-2.6,0-4.1,1.8-4.7,4.9l-0.7,4.2c-0.5,2.9,0.3,4.9,2.9,4.9s4.2-2,4.6-4.9L305.8,65.5z"/>
			</g>
		</g>
	</g>
</g>
<rect x="323.7" y="63.3" class="st3" width="155.9" height="23.7"/>
<g class="st4">
	<path class="st5" d="M327.2,63.3h4.5l-3,17.3h5.3l-0.7,4.4h-9.8L327.2,63.3z"/>
	<path class="st5" d="M350.6,63.3l-2.7,15.1c-0.9,5.1-3.5,7-7,7c-3.3,0-6.3-2-5.4-7l2.7-15.1h4.7L340.3,78c-0.4,2.2,0.4,3,1.5,3
		c1.3,0,2.4-0.8,2.8-3l2.6-14.6H350.6z"/>
	<path class="st5" d="M352.7,85.1H348l5.9-10.5l-2-11.3h5.3l1,6.9l3.6-6.9h4.6l-5.9,10.6l2,11.2h-5.3l-1-6.8L352.7,85.1z"/>
	<path class="st5" d="M367.7,63.3h10.4l-0.8,4.4h-5.9l-0.8,4.5h4.2l-0.7,3.6H370l-0.8,4.8h6l-0.8,4.4h-10.5L367.7,63.3z"/>
	<path class="st5" d="M380.2,63.3h5.7l0.3,13.6l4.7-13.6h6.3l-3.8,21.7h-4.2l2.8-16.1l-5.5,16.1h-3.9L382.5,69l-2.8,16.1h-3.4
		L380.2,63.3z"/>
	<path class="st5" d="M399.9,63.3h6.6c3.6,0,5.2,2,4.6,5.1l-0.4,2c-0.4,2.5-1.9,3.3-2.9,3.7l0,0.1c1,0.4,2.2,1.4,1.7,4.1l-0.3,1.7
		c-0.6,3.5-2.8,5-6,5H396L399.9,63.3z M401.2,81.1h1.5c1.2,0,2-0.6,2.2-2.1l0.2-1c0.3-1.5-0.4-2-1.4-2h-1.6L401.2,81.1z M402.8,72.5
		h1.5c1,0,1.8-0.5,2-1.9l0.2-1.3c0.2-1.2-0.3-1.9-1.5-1.9h-1.4L402.8,72.5z"/>
	<path class="st5" d="M426,70l-1.5,8.7c-0.8,4.5-3.6,6.6-7.3,6.6c-3.7,0-6.7-2.1-5.9-7l1.5-8.7c0.8-4.5,3.6-6.6,7.4-6.6
		C423.8,63,426.8,65.2,426,70z M417.2,70.2l-1.4,8c-0.4,2,0.4,2.8,1.6,2.8s2.2-0.8,2.6-2.8l1.4-8c0.4-2-0.4-2.8-1.6-2.8
		C418.6,67.4,417.6,68.2,417.2,70.2z"/>
	<path class="st5" d="M441.8,63.3l-2.7,15.1c-0.9,5.1-3.5,7-7,7c-3.3,0-6.3-2-5.4-7l2.7-15.1h4.7L431.5,78c-0.4,2.2,0.4,3,1.5,3
		c1.3,0,2.4-0.8,2.8-3l2.6-14.6H441.8z"/>
	<path class="st5" d="M453.1,85.1h-3.6c-1,0-1.2-0.8-1-1.8l0.6-5.1c0.2-1.6-0.5-2.1-1.5-2.1h-1.2l-1.6,8.9h-4.5l3.8-21.7h6.7
		c3.3,0,5.2,1.9,4.6,5.3l-0.4,2.3c-0.4,2.2-1.9,3.2-3.3,3.6v0.1c1.1,0.3,2,1.2,1.7,3.4l-0.5,4.7c-0.1,0.8-0.1,1.4,0.1,1.8
		L453.1,85.1z M450.7,70.8l0.2-1.3c0.2-1.3-0.3-1.9-1.5-1.9h-1.4l-0.9,5.2h1.4C449.8,72.7,450.5,72.1,450.7,70.8z"/>
	<path class="st5" d="M465.1,82.4c-0.9,1.7-2.2,3-4.9,3c-2.9,0-5.2-2.1-4.4-7l1.5-8.8c0.8-4.5,3.3-6.6,6.9-6.6
		c3.6,0,6.3,2.1,5.5,6.8l-0.2,0.8l-3.7,0.3l0.1-0.7c0.4-2-0.4-2.8-1.6-2.8c-1.2,0-2.3,0.8-2.6,2.8l-1.4,8c-0.4,2,0.4,2.8,1.7,2.8
		c1.3,0,2.3-1,2.7-3.1l0.2-1.2h-2.5l0.6-3.3h6.4l-2,11.7h-2.7L465.1,82.4z"/>
</g>
</svg>
