<!-- Generator: Adobe Illustrator 21.0.2, SVG Export Plug-In  -->
<svg version="1.1"
	 xmlns="http://www.w3.org/2000/svg" xmlns:xlink="http://www.w3.org/1999/xlink" xmlns:a="http://ns.adobe.com/AdobeSVGViewerExtensions/3.0/"
	 x="0px" y="0px" width="455.3px" height="213.3px" viewBox="0 0 455.3 213.3" style="enable-background:new 0 0 455.3 213.3;"
	 xml:space="preserve">
<style type="text/css">
	.st0{fill:#00B1EB;}
	.st1{fill:#E40427;}
	.st2{fill:#000000;}
	.st3{fill:#4B2A2E;}
</style>
<defs>
</defs>
<path class="st0" d="M26.1,91.7L0,131.4c0.9,39.7,32.9,80.4,80.9,81.8c0,0,0,0,0,0c15.1-10.2,26.2-25.7,30.7-43.9c-1,0-2,0.1-3,0.1
	C42.7,169.3,25.1,94.8,26.1,91.7"/>
<path class="st1" d="M156.5,151.7L156.5,151.7c0-0.1,1.1-8.3,1.1-12.6c0-14.9-4.4-28.8-12-40.4h0C120.8,60.6,83.5,0,83.5,0 M83.5,0
	c0,0-11.5,21.1-26.1,43.4c12.9,19.8,30.5,46.8,44.3,67.9h0c7.6,11.6,12,25.5,12,40.4c0,6.1-0.7,12-2.1,17.6
	c17.1-0.7,32.7-7.2,44.9-17.6"/>
<path class="st2" d="M219.1,121.3V43.8h-17.3v77.4c0,16.9,13.7,30.7,30.5,30.7h43.2v-17.3h-43.2
	C225.1,134.7,219.1,128.7,219.1,121.3z"/>
<path class="st2" d="M368.7,43.8h-17.3V108C340.7,96.6,295,48.5,293,46.5c-1.4-1.4-2.7-1.5-3.6-0.6c-0.8,0.8-0.8,2.1-0.8,2.5V152
	h17.3V89.5c10.4,10.7,54.9,56.3,57.9,59.4c1.9,1.9,3.4,2.1,4.3,1c0.8-1,0.7-2.7,0.6-3.1V43.8z"/>
<path class="st2" d="M417.6,85.4c-3.4-0.8-8.2-2.3-11.5-5.5c-2.6-2.7-3.9-5.8-3.6-8.4c1.2-7.6,8.4-10.4,14.7-10.4
	c7.5,0,17.4,3.9,21.4,12.4l0.7,1.4l14.1-10.9l-0.5-1c-7-12.4-19.4-19.5-34-19.5c-6.9,0-14.2,2.1-20.2,5.7
	c-7.3,4.8-12.2,12.1-13.2,20.1c-2,18.5,14.7,30,32.2,33.2c9.2,1.7,21.3,9,20.4,18.3c-0.5,3.8-2.9,7.3-6.9,9.8
	c-4.2,2.4-9,3.7-13.8,3.7c-10.3,0-20-5.6-24.5-14.3L392,119l-13.7,11.1l0.6,1c8.4,13.3,22.2,21,38.1,21c17.4,0,36.5-10.8,38.2-28.9
	C457.1,101.8,437,88.7,417.6,85.4z"/>
<g>
	<path class="st2" d="M201.9,206v-27h2.9v24.4h13.8v2.6H201.9z"/>
	<path class="st2" d="M232.9,206.3c-5.5,0-9.4-3.8-9.4-9.1V179h2.9v17.9c0,4.1,2.6,6.8,6.5,6.8s6.6-2.7,6.6-6.8V179h2.9v18.1
		C242.3,202.5,238.3,206.3,232.9,206.3z"/>
	<path class="st2" d="M264.2,206l-6.6-11.3l-6.6,11.3h-3.3l8.3-13.9l-7.7-13.2h3.3l6,10.7l6-10.7h3.3l-7.8,13.2l8.3,13.9H264.2z"/>
	<path class="st2" d="M273.4,206v-27h16.8v2.6h-13.9v9.5h11.8v2.6h-11.8v9.8h13.9v2.6H273.4z"/>
	<path class="st2" d="M317.8,206v-20.5l-7.4,16.3H308l-7.5-16.3V206h-2.9v-27h2.9l8.8,19.2l8.6-19.2h2.9v27H317.8z"/>
	<path class="st2" d="M340.4,206h-10.5v-27h10.2c4.7,0,8,2.7,8,7.2c0,2.8-1.7,5.1-4,5.9c2.6,0.9,4.4,3.2,4.4,6.4
		C348.5,203.5,345.2,206,340.4,206z M339.9,181.6h-7.1v9.4h7.1c3,0,5.3-1.5,5.3-4.7C345.2,183,342.9,181.6,339.9,181.6z
		 M340.2,193.5h-7.4v9.9h7.4c3.3,0,5.4-1.9,5.4-5C345.6,195.4,343.5,193.5,340.2,193.5z"/>
	<path class="st2" d="M372,203.5c-1.8,1.8-4.2,2.8-6.9,2.8s-5.1-1-6.9-2.8c-2.5-2.5-2.5-5.2-2.5-10.9c0-5.7,0-8.4,2.5-10.9
		c1.8-1.8,4.2-2.8,6.9-2.8s5.1,1,6.9,2.8c2.5,2.5,2.5,5.2,2.5,10.9C374.5,198.3,374.5,200.9,372,203.5z M369.7,183.3
		c-1.2-1.2-2.9-1.9-4.7-1.9c-1.8,0-3.5,0.7-4.7,1.9c-1.7,1.7-1.9,3.6-1.9,9.2c0,5.7,0.2,7.5,1.9,9.2c1.2,1.2,2.9,1.9,4.7,1.9
		c1.8,0,3.5-0.7,4.7-1.9c1.7-1.7,1.9-3.6,1.9-9.2C371.6,186.9,371.5,185,369.7,183.3z"/>
	<path class="st2" d="M391.7,206.3c-5.5,0-9.4-3.8-9.4-9.1V179h2.9v17.9c0,4.1,2.6,6.8,6.5,6.8c3.9,0,6.6-2.7,6.6-6.8V179h2.9v18.1
		C401.2,202.5,397.2,206.3,391.7,206.3z"/>
	<path class="st2" d="M425.5,206l-6.1-12h-6.5v12H410v-27h10.4c4.7,0,8,2.8,8,7.5c0,3.9-2.4,6.5-5.9,7.2l6.4,12.3H425.5z
		 M420.1,181.6h-7.2v9.9h7.2c3.2,0,5.4-1.6,5.4-4.9C425.5,183.3,423.3,181.6,420.1,181.6z"/>
	<path class="st2" d="M451.9,203.1c-1.9,2-4.4,3.1-7.2,3.1c-2.7,0-5.1-1-6.9-2.8c-2.5-2.5-2.5-5.2-2.5-10.9c0-5.7,0-8.4,2.5-10.9
		c1.8-1.8,4.2-2.8,6.9-2.8c5.2,0,8.7,3.3,9.4,8.1h-2.9c-0.8-3.4-3.2-5.5-6.6-5.5c-1.8,0-3.5,0.7-4.7,1.9c-1.7,1.7-1.9,3.6-1.9,9.2
		c0,5.7,0.2,7.5,1.9,9.3c1.2,1.2,2.9,1.9,4.7,1.9c2,0,3.9-0.8,5.1-2.3c1.1-1.3,1.5-2.8,1.5-4.9v-2h-6.6v-2.5h9.5v4.3
		C454.2,199.3,453.6,201.4,451.9,203.1z"/>
</g>
<path class="st3" d="M156.5,151.7c-12.2,10.4-27.8,16.9-44.9,17.6c-4.4,18.2-15.6,33.8-30.7,43.9c0.9,0,1.7,0.1,2.6,0.1
	c0,0,0.1,0,0.1,0h0c0,0,0.1,0,0.1,0c0,0,0.1,0,0.1,0h0c0,0,0,0,0.1,0c0,0,0,0,0.1,0c0,0,0,0,0.1,0c0,0,0,0,0.1,0c0,0,0,0,0.1,0
	c0,0,0,0,0.1,0c0,0,0,0,0.1,0c0,0,0,0,0,0c0,0,0,0,0.1,0c0,0,0,0,0.1,0c0,0,0.1,0,0.1,0c0,0,0,0,0,0c0,0,0,0,0.1,0c0,0,0,0,0.1,0
	c0,0,0,0,0.1,0c0,0,0,0,0.1,0c0,0,0,0,0.1,0c0,0,0,0,0.1,0c0,0,0,0,0.1,0c0,0,0,0,0.1,0c0,0,0,0,0.1,0c0,0,0,0,0.1,0s0,0,0.1,0
	c0,0,0,0,0.1,0c0,0,0,0,0,0c0.1,0,0.3,0,0.4,0c0,0,0,0,0,0c0,0,0.1,0,0.1,0c0,0,0,0,0,0c0,0,0.1,0,0.1,0c0,0,0,0,0,0
	c0,0,0.1,0,0.1,0c0,0,0,0,0,0c0,0,0.1,0,0.1,0c0,0,0,0,0,0C121.6,212,150.7,185.8,156.5,151.7"/>
</svg>